# xmcd
#
# Track frame offsets:
#	150
#	12639
#	50638
#	66709
#	80782
#	104685
#	118091
#	132259
#	149112
#	168060
#	178570
#	190663
#	221065
#	241575
#
# Disc length: 3759
#
# Revision: 1
# Processed by: cddbd v1.5.1PL0 Copyright (c) Steve Scherf et al.
# Submitted via: CDex 1.51
# Normalized: r0:DSETVAR1,TDELIM( - )
#
DISCID=d90ead0e
DTITLE=Various Artist - smímprositpotøetí?
DYEAR=2003
DGENRE=Jazz
TTITLE0=Quincy Jones - Soul Bossa Nova
TTITLE1=Ray Barretto - Pastime Paradise
TTITLE2=Sister Rosetta Tharpe - How About You
TTITLE3=Sergio Mendes and Brasil '66 - Night And Day
TTITLE4=Billy Paul - Am I Black Enough For You
TTITLE5=Willie Bobo - This Guy's In Love With You
TTITLE6=Lill Lindfors - Mas Que Nada
TTITLE7=Carmen McRae - Flamingo
TTITLE8=Richard Groove Holmes - Grooving With Mr. G
TTITLE9=Edmundo Ros - Light My Fire
TTITLE10=Blossom Dearie - I Like London In The Rain
TTITLE11=Lou Donaldson - Who's Making Love
TTITLE12=Frankie Ruiz - Satisfaction (I Can't Get No)
TTITLE13=Deodato - Also Sprach Zarathustra
EXTD=YEAR: 2003
EXTT0=
EXTT1=
EXTT2=
EXTT3=
EXTT4=
EXTT5=
EXTT6=
EXTT7=
EXTT8=
EXTT9=
EXTT10=
EXTT11=
EXTT12=
EXTT13=
PLAYORDER=
